<?xml version="1.0" standalone="no"?>
<!DOCTYPE svg PUBLIC "-//W3C//DTD SVG 20010904//EN"
 "http://www.w3.org/TR/2001/REC-SVG-20010904/DTD/svg10.dtd">
<svg version="1.0" xmlns="http://www.w3.org/2000/svg"
 width="512.000000pt" height="512.000000pt" viewBox="0 0 512.000000 512.000000"
 preserveAspectRatio="xMidYMid meet">
<metadata>
Created by potrace 1.16, written by Peter Selinger 2001-2019
</metadata>
<g transform="translate(0.000000,512.000000) scale(0.100000,-0.100000)"
fill="#000000" stroke="none">
<path fill="#c4c2c2" d="M2320 5106 c-318 -57 -573 -188 -799 -409 -211 -207 -352 -462 -416
-757 -25 -114 -31 -401 -12 -526 51 -320 190 -593 418 -822 46 -46 109 -103
141 -127 l58 -43 -73 -27 c-225 -84 -524 -260 -717 -423 -265 -222 -504 -523
-654 -820 -161 -320 -265 -732 -266 -1054 l0 -98 204 0 203 0 6 132 c23 511
248 1008 628 1387 323 323 703 521 1169 608 136 25 564 25 700 0 466 -87 846
-285 1169 -608 322 -321 527 -715 606 -1164 9 -49 19 -150 22 -223 l6 -132
203 0 204 0 0 98 c-1 322 -105 734 -266 1054 -150 297 -389 598 -654 820 -193
163 -492 339 -717 423 l-73 27 59 44 c32 24 94 80 139 124 227 228 368 504
419 824 19 125 13 412 -12 526 -100 457 -390 828 -810 1038 -75 37 -246 95
-345 117 -102 23 -436 29 -540 11z m432 -410 c226 -43 427 -153 584 -319 196
-205 294 -452 294 -737 0 -285 -98 -532 -294 -737 -207 -219 -474 -333 -776
-333 -302 0 -569 114 -776 333 -196 205 -294 452 -294 737 0 131 15 228 54
344 121 361 436 635 816 711 89 18 301 18 392 1z"/>
</g>
</svg>
